<svg width="29" height="28" viewBox="0 0 29 28" fill="none" xmlns="http://www.w3.org/2000/svg">
<path d="M11.4759 22.7212V19.501C11.4759 18.685 12.1394 18.022 12.9613 18.0169H15.9792C16.8048 18.0169 17.4741 18.6813 17.4741 19.501V22.7119C17.474 23.4196 18.0492 23.9948 18.7621 24H20.821C21.7826 24.0024 22.7057 23.6249 23.3865 22.9507C24.0673 22.2765 24.45 21.3611 24.45 20.4064V11.2591C24.45 10.4879 24.1056 9.75644 23.5098 9.26167L16.5151 3.70798C15.2924 2.73658 13.5461 2.76796 12.3596 3.78265L5.51536 9.26167C4.89138 9.74185 4.51843 10.4755 4.5 11.2591V20.397C4.5 22.3869 6.12475 24 8.12898 24H10.1409C10.4841 24.0024 10.8142 23.8688 11.0577 23.6287C11.3013 23.3886 11.4383 23.062 11.4383 22.7212H11.4759Z" fill="#AEB7C2"/>
</svg>
