<svg width="29" height="28" viewBox="0 0 29 28" fill="none" xmlns="http://www.w3.org/2000/svg">
<path fill-rule="evenodd" clip-rule="evenodd" d="M18.7262 4.9875H19.9187C21.6081 4.9875 22.9 6.27938 22.9 7.96875V9V9.95625V12V17.4L20.9 19.4L20.7 19.2C19.8 18.2 18.2 18.2 17.2 19.2C16.3 20.2 16.3 21.8 17.3 22.8L18.5 24H10C8.3 24 7 22.7 7 21V9.45938V8.59933V7.96875C7 6.27938 8.29187 4.9875 9.98125 4.9875H11.1737C11.5712 3.795 12.6644 3 13.9562 3H15.9437C17.2356 3 18.3287 3.795 18.7262 4.9875ZM13.9562 4.9875C13.36 4.9875 12.9625 5.385 12.9625 5.98125V6.975H16.9375V5.98125C16.9375 5.385 16.54 4.9875 15.9437 4.9875H13.9562ZM24.3 18.3C24.7 17.9 25.3 17.9 25.7 18.3C26.1 18.7 26.1 19.3 25.7 19.7L21.7 23.7C21.3 24.1 20.7 24.1 20.3 23.7L18.3 21.7C17.9 21.3 17.9 20.7 18.3 20.3C18.7 19.9 19.3 19.9 19.7 20.3L21 21.6L24.3 18.3ZM12 10H18C18.6 10 19 10.32 19 10.8C19 11.28 18.6 11.6 18 11.6H12C11.4 11.6 11 11.28 11 10.8C11 10.32 11.4 10 12 10ZM18 14.1H12C11.4 14.1 11 14.42 11 14.9C11 15.38 11.4 15.7 12 15.7H18C18.6 15.7 19 15.38 19 14.9C19 14.42 18.6 14.1 18 14.1ZM12 18.2H14C14.6 18.2 15 18.52 15 19C15 19.48 14.6 19.8 14 19.8H12C11.4 19.8 11 19.48 11 19C11 18.52 11.4 18.2 12 18.2Z" fill="#4AC6FF"/>
<path fill-rule="evenodd" clip-rule="evenodd" d="M18.7262 4.9875H19.9187C21.6081 4.9875 22.9 6.27938 22.9 7.96875V9V9.95625V12V17.4L20.9 19.4L20.7 19.2C19.8 18.2 18.2 18.2 17.2 19.2C16.3 20.2 16.3 21.8 17.3 22.8L18.5 24H10C8.3 24 7 22.7 7 21V9.45938V8.59933V7.96875C7 6.27938 8.29187 4.9875 9.98125 4.9875H11.1737C11.5712 3.795 12.6644 3 13.9562 3H15.9437C17.2356 3 18.3287 3.795 18.7262 4.9875ZM13.9562 4.9875C13.36 4.9875 12.9625 5.385 12.9625 5.98125V6.975H16.9375V5.98125C16.9375 5.385 16.54 4.9875 15.9437 4.9875H13.9562ZM24.3 18.3C24.7 17.9 25.3 17.9 25.7 18.3C26.1 18.7 26.1 19.3 25.7 19.7L21.7 23.7C21.3 24.1 20.7 24.1 20.3 23.7L18.3 21.7C17.9 21.3 17.9 20.7 18.3 20.3C18.7 19.9 19.3 19.9 19.7 20.3L21 21.6L24.3 18.3ZM12 10H18C18.6 10 19 10.32 19 10.8C19 11.28 18.6 11.6 18 11.6H12C11.4 11.6 11 11.28 11 10.8C11 10.32 11.4 10 12 10ZM18 14.1H12C11.4 14.1 11 14.42 11 14.9C11 15.38 11.4 15.7 12 15.7H18C18.6 15.7 19 15.38 19 14.9C19 14.42 18.6 14.1 18 14.1ZM12 18.2H14C14.6 18.2 15 18.52 15 19C15 19.48 14.6 19.8 14 19.8H12C11.4 19.8 11 19.48 11 19C11 18.52 11.4 18.2 12 18.2Z" fill="#AEB7C2"/>
</svg>
