<svg width="29" height="28" viewBox="0 0 29 28" fill="none" xmlns="http://www.w3.org/2000/svg">
<path fill-rule="evenodd" clip-rule="evenodd" d="M10 4.5C10 3.94772 10.4477 3.5 11 3.5C11.5523 3.5 12 3.94772 12 4.5V5.5H18V4.5C18 3.94772 18.4477 3.5 19 3.5C19.5523 3.5 20 3.94772 20 4.5V5.68536C21.9419 6.19742 23 7.75003 23 10.0885V19.902C23 22.847 21.3756 24.5 18.4582 24.5H10.5428C7.67167 24.5 6 22.847 6 19.902V10.0885C6 7.37871 7.46209 5.72416 10 5.52116V4.5ZM10.7978 18.553C10.5144 18.5245 10.2406 18.6575 10.0894 18.9045C9.93833 19.142 9.93833 19.4555 10.0894 19.7025C10.2406 19.94 10.5144 20.0825 10.7978 20.0445H18.2022C18.5791 20.0065 18.8633 19.6826 18.8633 19.3035C18.8633 18.914 18.5791 18.591 18.2022 18.553H10.7978ZM18.2022 14.22H10.7978C10.3907 14.22 10.0611 14.5535 10.0611 14.962C10.0611 15.3705 10.3907 15.703 10.7978 15.703H18.2022C18.6083 15.703 18.9389 15.3705 18.9389 14.962C18.9389 14.5535 18.6083 14.22 18.2022 14.22ZM13.6207 9.9175H10.7978V9.927C10.3907 9.927 10.0611 10.2595 10.0611 10.668C10.0611 11.0765 10.3907 11.409 10.7978 11.409H13.6207C14.0278 11.409 14.3583 11.0765 14.3583 10.6575C14.3583 10.25 14.0278 9.9175 13.6207 9.9175Z" fill="#AEB7C2"/>
</svg>
