<svg width="28" height="28" viewBox="0 0 28 28" fill="none" xmlns="http://www.w3.org/2000/svg">
<path d="M26 10.4742C26 12.2105 25.34 13.8367 24.14 15.0594L14.72 23.6576C14.672 23.7066 14.54 23.8166 14.48 23.8533C14.336 23.9511 14.168 24 14 24C13.832 24 13.652 23.9511 13.508 23.8533C13.436 23.8044 13.376 23.7555 13.304 23.6821L3.872 15.0594C2.66 13.8367 2 12.2105 2 10.4742C2 8.73799 2.66 7.11179 3.872 5.88908C6.356 3.37031 10.388 3.37031 12.872 5.88908L14 7.05065L15.14 5.88908C17.624 3.37031 21.656 3.37031 24.128 5.88908C25.34 7.11179 26 8.73799 26 10.4742Z" fill="#B4BDC6"/>
<path d="M10.04 16.5H10.0227C9.91795 16.496 9.81659 16.4614 9.73077 16.4003C9.64494 16.3393 9.57832 16.2544 9.53888 16.1558L7.66199 11.4164L6.9838 12.872C6.94046 12.9662 6.87145 13.0457 6.78494 13.1013C6.69844 13.1568 6.59805 13.186 6.49568 13.1855H2.03996C1.89675 13.1855 1.75941 13.1278 1.65815 13.025C1.55689 12.9222 1.5 12.7828 1.5 12.6375C1.5 12.4921 1.55689 12.3527 1.65815 12.2499C1.75941 12.1472 1.89675 12.0894 2.03996 12.0894H6.15444L7.21491 9.814C7.25836 9.71672 7.32952 9.63488 7.41921 9.57901C7.5089 9.52314 7.61302 9.4958 7.71815 9.50052C7.82309 9.5037 7.9248 9.53798 8.01077 9.59914C8.09675 9.66029 8.16321 9.74566 8.20195 9.84469L10.0853 14.595L11.6425 11.32C11.6888 11.2236 11.7619 11.143 11.8528 11.0884C11.9437 11.0337 12.0484 11.0073 12.1539 11.0124C12.2594 11.0176 12.3611 11.054 12.4465 11.1173C12.5318 11.1805 12.597 11.2678 12.6339 11.3682L13.6382 14.1128L14.7527 12.3415C14.8014 12.2636 14.8687 12.1995 14.9484 12.155C15.0281 12.1106 15.1175 12.0873 15.2084 12.0872H19.96C20.1032 12.0872 20.2406 12.145 20.3419 12.2478C20.4431 12.3505 20.5 12.4899 20.5 12.6353C20.5 12.7806 20.4431 12.92 20.3419 13.0228C20.2406 13.1256 20.1032 13.1833 19.96 13.1833H15.5043L13.9644 15.6297C13.9104 15.7156 13.8339 15.7846 13.7435 15.8288C13.653 15.873 13.5522 15.8907 13.4524 15.88C13.3526 15.8693 13.2577 15.8306 13.1783 15.7682C13.099 15.7058 13.0383 15.6221 13.0032 15.5267L12.0637 12.9553L10.5259 16.1865C10.4825 16.2802 10.4138 16.3593 10.3278 16.4148C10.2417 16.4703 10.1419 16.4999 10.04 16.5Z" fill="white"/>
<path d="M10.04 16.5H10.0227C9.91795 16.496 9.81659 16.4614 9.73077 16.4003C9.64494 16.3393 9.57832 16.2544 9.53888 16.1558L7.66199 11.4164L6.9838 12.872C6.94046 12.9662 6.87145 13.0457 6.78494 13.1013C6.69844 13.1568 6.59805 13.186 6.49568 13.1855H2.03996C1.89675 13.1855 1.75941 13.1278 1.65815 13.025C1.55689 12.9222 1.5 12.7828 1.5 12.6375C1.5 12.4921 1.55689 12.3527 1.65815 12.2499C1.75941 12.1472 1.89675 12.0894 2.03996 12.0894H6.15444L7.21491 9.814C7.25836 9.71672 7.32952 9.63488 7.41921 9.57901C7.5089 9.52314 7.61302 9.4958 7.71815 9.50052C7.82309 9.5037 7.9248 9.53798 8.01077 9.59914C8.09675 9.66029 8.16321 9.74566 8.20195 9.84469L10.0853 14.595L11.6425 11.32C11.6888 11.2236 11.7619 11.143 11.8528 11.0884C11.9437 11.0337 12.0484 11.0073 12.1539 11.0124C12.2594 11.0176 12.3611 11.054 12.4465 11.1173C12.5318 11.1805 12.597 11.2678 12.6339 11.3682L13.6382 14.1128L14.7527 12.3415C14.8014 12.2636 14.8687 12.1995 14.9484 12.155C15.0281 12.1106 15.1175 12.0873 15.2084 12.0872H19.96C20.1032 12.0872 20.2406 12.145 20.3419 12.2478C20.4431 12.3505 20.5 12.4899 20.5 12.6353C20.5 12.7806 20.4431 12.92 20.3419 13.0228C20.2406 13.1256 20.1032 13.1833 19.96 13.1833H15.5043L13.9644 15.6297C13.9104 15.7156 13.8339 15.7846 13.7435 15.8288C13.653 15.873 13.5522 15.8907 13.4524 15.88C13.3526 15.8693 13.2577 15.8306 13.1783 15.7682C13.099 15.7058 13.0383 15.6221 13.0032 15.5267L12.0637 12.9553L10.5259 16.1865C10.4825 16.2802 10.4138 16.3593 10.3278 16.4148C10.2417 16.4703 10.1419 16.4999 10.04 16.5Z" stroke="white"/>
</svg>
