<svg width="29" height="29" viewBox="0 0 29 29" fill="none" xmlns="http://www.w3.org/2000/svg">
<path d="M14.3333 3.5C8.36417 3.5 3.5 8.36417 3.5 14.3333C3.5 20.3025 8.36417 25.1667 14.3333 25.1667C20.3025 25.1667 25.1667 20.3025 25.1667 14.3333C25.1667 8.36417 20.3025 3.5 14.3333 3.5ZM14.1167 8.6675C16.045 8.6675 17.605 10.2275 17.605 12.1558C17.605 14.0733 16.045 15.6442 14.1167 15.6442C12.1992 15.6442 10.6392 14.0733 10.6392 12.1558C10.6392 10.2275 12.1992 8.6675 14.1167 8.6675ZM20.7575 20.92C20.27 21.4075 19.7175 21.83 19.1325 22.1875C17.735 23.0542 16.0883 23.5417 14.3333 23.5417C12.5783 23.5417 10.9317 23.0542 9.53417 22.1875C8.94917 21.83 8.39667 21.4075 7.90917 20.92V20.7142C7.90917 18.4933 9.71833 16.6842 11.9283 16.6842H16.7383C18.9483 16.6842 20.7575 18.4933 20.7575 20.7142V20.92Z" fill="#AEB7C2"/>
</svg>
