<svg width="28" height="28" viewBox="0 0 28 28" fill="none" xmlns="http://www.w3.org/2000/svg">
<path d="M9.44632 3.6678C9.57895 3.60064 9.71158 3.54478 9.85526 3.5V21.9592L7.50105 23.1792C6.64999 23.6269 5.66632 23.5823 4.84842 23.0786C4.00842 22.5637 3.5 21.6455 3.5 20.6269V9.23127C3.5 7.70887 4.31789 6.33204 5.63315 5.64919L9.44632 3.6678ZM11.5132 3.5V21.9592L16.0779 24.3322C16.2105 24.3994 16.3432 24.4552 16.4868 24.5V6.04083L11.9221 3.6678C11.7895 3.60064 11.6568 3.54478 11.5132 3.5ZM23.1516 4.92141C22.3337 4.41767 21.35 4.38426 20.499 4.82084L18.1447 6.04083V24.5C18.2884 24.4552 18.421 24.3994 18.5537 24.3322L22.3668 22.3508C23.6821 21.668 24.5 20.2911 24.5 18.7687V7.37314C24.5 6.35447 23.9916 5.43634 23.1516 4.92141Z" fill="#B4BDC6"/>
</svg>
