<svg width="29" height="28" viewBox="0 0 29 28" fill="none" xmlns="http://www.w3.org/2000/svg">
<path d="M20.875 8H18.875V7C18.875 5.3 17.575 4 15.875 4H11.875C10.175 4 8.875 5.3 8.875 7V8H6.875C5.175 8 3.875 9.3 3.875 11V12H23.875V11C23.875 9.3 22.575 8 20.875 8ZM16.875 8H10.875V7C10.875 6.4 11.275 6 11.875 6H15.875C16.475 6 16.875 6.4 16.875 7V8ZM3.875 21C3.875 22.7 5.175 24 6.875 24H20.875C22.575 24 23.875 22.7 23.875 21V14H3.875V21ZM11.875 18H12.875V17C12.875 16.4 13.275 16 13.875 16C14.475 16 14.875 16.4 14.875 17V18H15.875C16.475 18 16.875 18.4 16.875 19C16.875 19.6 16.475 20 15.875 20H14.875V21C14.875 21.6 14.475 22 13.875 22C13.275 22 12.875 21.6 12.875 21V20H11.875C11.275 20 10.875 19.6 10.875 19C10.875 18.4 11.275 18 11.875 18Z" fill="#AEB7C2"/>
</svg>
