<svg width="29" height="28" viewBox="0 0 29 28" fill="none" xmlns="http://www.w3.org/2000/svg">
<path d="M21.625 6H20.625V5C20.625 4.4 20.225 4 19.625 4C19.025 4 18.625 4.4 18.625 5V6H10.625V5C10.625 4.4 10.225 4 9.625 4C9.025 4 8.625 4.4 8.625 5V6H7.625C5.925 6 4.625 7.3 4.625 9V10H24.625V9C24.625 7.3 23.325 6 21.625 6ZM4.625 21C4.625 22.7 5.925 24 7.625 24H21.625C23.325 24 24.625 22.7 24.625 21V12H4.625V21ZM19.625 14C20.225 14 20.625 14.4 20.625 15C20.625 15.6 20.225 16 19.625 16C19.025 16 18.625 15.6 18.625 15C18.625 14.4 19.025 14 19.625 14ZM19.625 18C20.225 18 20.625 18.4 20.625 19C20.625 19.6 20.225 20 19.625 20C19.025 20 18.625 19.6 18.625 19C18.625 18.4 19.025 18 19.625 18ZM14.625 14C15.225 14 15.625 14.4 15.625 15C15.625 15.6 15.225 16 14.625 16C14.025 16 13.625 15.6 13.625 15C13.625 14.4 14.025 14 14.625 14ZM14.625 18C15.225 18 15.625 18.4 15.625 19C15.625 19.6 15.225 20 14.625 20C14.025 20 13.625 19.6 13.625 19C13.625 18.4 14.025 18 14.625 18ZM9.625 14C10.225 14 10.625 14.4 10.625 15C10.625 15.6 10.225 16 9.625 16C9.025 16 8.625 15.6 8.625 15C8.625 14.4 9.025 14 9.625 14ZM9.625 18C10.225 18 10.625 18.4 10.625 19C10.625 19.6 10.225 20 9.625 20C9.025 20 8.625 19.6 8.625 19C8.625 18.4 9.025 18 9.625 18Z" fill="#AEB7C2"/>
</svg>
